HIERARCHY
ROOT hip
{
	OFFSET 0.000000 0.000000 0.000000
	CHANNELS 6 Xposition Yposition Zposition Xrotation Zrotation Yrotation 
	JOINT abdomen
	{
		OFFSET 0.000000 3.422050 0.000000
		CHANNELS 3 Xrotation Zrotation Yrotation 
		JOINT chest
		{
			OFFSET 0.000000 8.486693 -0.684411
			CHANNELS 3 Xrotation Zrotation Yrotation 
			JOINT neck
			{
				OFFSET 0.000000 10.266162 -0.273764
				CHANNELS 3 Xrotation Zrotation Yrotation 
				JOINT head
				{
					OFFSET 0.000000 3.148285 0.000000
					CHANNELS 3 Xrotation Zrotation Yrotation 
					End Site
					{
						OFFSET 0.000000 3.148289 0.000000
					}
				}
			}
			JOINT lCollar
			{
				OFFSET 3.422053 6.707223 -0.821293
				CHANNELS 3 Yrotation Zrotation Xrotation 
				JOINT lShldr
				{
					OFFSET 3.285171 0.000000 0.000000
					CHANNELS 3 Zrotation Yrotation Xrotation 
					JOINT lForeArm
					{
						OFFSET 10.129278 0.000000 0.000000
						CHANNELS 3 Yrotation Zrotation Xrotation 
						JOINT lHand
						{
							OFFSET 8.486692 0.000000 0.000000
							CHANNELS 3 Zrotation Yrotation Xrotation 
							End Site
							{
								OFFSET 4.106464 0.000000 0.000000
							}
						}
					}
				}
			}
			JOINT rCollar
			{
				OFFSET -3.558935 6.707223 -0.821293
				CHANNELS 3 Yrotation Zrotation Xrotation 
				JOINT rShldr
				{
					OFFSET -3.148289 0.000000 0.000000
					CHANNELS 3 Zrotation Yrotation Xrotation 
					JOINT rForeArm
					{
						OFFSET -10.266159 0.000000 0.000000
						CHANNELS 3 Yrotation Zrotation Xrotation 
						JOINT rHand
						{
							OFFSET -8.349810 0.000000 0.000000
							CHANNELS 3 Zrotation Yrotation Xrotation 
							End Site
							{
								OFFSET -4.106464 0.000000 0.000000
							}
						}
					}
				}
			}
		}
	}
	JOINT lThigh
	{
		OFFSET 5.338403 -1.642589 1.368821
		CHANNELS 3 Xrotation Zrotation Yrotation 
		JOINT lShin
		{
			OFFSET -2.053232 -20.121670 0.000000
			CHANNELS 3 Xrotation Zrotation Yrotation 
			JOINT lFoot
			{
				OFFSET 0.000000 -19.300380 -1.231939
				CHANNELS 3 Xrotation Yrotation Zrotation 
				End Site
				{
					OFFSET 0.000000 -2.463878 4.653993
				}
			}
		}
	}
	JOINT rThigh
	{
		OFFSET -5.338403 -1.642589 1.368821
		CHANNELS 3 Xrotation Zrotation Yrotation 
		JOINT rShin
		{
			OFFSET 2.053232 -20.121670 0.000000
			CHANNELS 3 Xrotation Zrotation Yrotation 
			JOINT rFoot
			{
				OFFSET 0.000000 -19.300380 -1.231939
				CHANNELS 3 Xrotation Yrotation Zrotation 
				End Site
				{
					OFFSET 0.000000 -2.463878 4.653993
				}
			}
		}
	}
}
MOTION
Frames: 11
Frame Time: 0.033325
0.000000 43.528500 0.000000 0.000000 0.000000 0.000000 0.000000 0.000000 0.000000 0.000000 0.000000 0.000000 0.000000 0.000000 0.000000 0.000000 0.000000 0.000000 0.000000 0.000000 0.000000 0.000000 0.000000 0.000000 0.000000 0.000000 0.000000 0.000000 0.000000 0.000000 0.000000 0.000000 0.000000 0.000000 0.000000 0.000000 0.000000 0.000000 0.000000 0.000000 0.000000 0.000000 0.000000 0.000000 0.000000 0.000000 0.000000 0.000000 0.000000 0.000000 0.000000 0.000000 0.000000 0.000000 0.000000 0.000000 0.000000 0.000000 0.000000 0.000000 
1.222521 21.934614 -5.415733 0.000014 84.995644 0.000013 -8.353531 -10.011360 -0.000918 24.568075 0.000158 -0.452721 27.995153 32.994152 3.001415 -1.450814 -0.212839 30.997189 1.996190 -21.000107 -0.005275 -64.999977 -41.001812 18.998201 -106.003296 -0.000855 16.997761 7.999504 -31.003471 -2.001999 11.996928 22.999266 -0.194377 67.997086 0.000685 -4.001318 4.998345 -0.002972 -5.001835 5.999296 12.196905 -3.002343 -29.814337 2.149634 11.351910 75.633820 0.639391 -7.063708 42.079865 -0.396741 -0.714813 -4.577024 3.310627 4.688697 15.068827 0.496964 -0.010108 19.703087 0.519254 0.138766 
1.222521 21.934614 -5.415733 0.000014 84.995644 0.000013 -8.353532 -10.011361 -0.000918 24.568077 0.000158 -0.452721 27.995155 32.994156 3.001417 -1.450814 -0.212839 30.997192 1.996190 -21.000109 -0.005275 -64.999977 -41.001812 18.998201 -106.003296 -0.000854 16.997761 7.999505 -31.003471 -2.001999 11.996928 22.999266 -0.194377 67.997086 0.000685 -4.001318 4.998345 -0.002972 -5.001835 5.999297 12.196906 -3.002343 -29.814337 2.149634 11.351911 75.633820 0.639391 -7.063708 42.079865 -0.396741 -0.714813 -4.577025 3.310627 4.688698 15.068827 0.496964 -0.010108 19.703089 0.519254 0.138766 
1.222521 21.934614 -5.415733 0.000014 84.995644 0.000013 -8.353531 -10.011360 -0.000918 24.568075 0.000158 -0.452721 27.995153 32.994152 3.001415 -1.450813 -0.212839 30.997189 1.996190 -21.000105 -0.005275 -64.999969 -41.001804 18.998198 -106.003296 -0.000855 16.997759 7.999504 -31.003471 -2.001999 11.996928 22.999266 -0.194377 67.997086 0.000685 -4.001317 4.998345 -0.002972 -5.001835 5.999296 12.196905 -3.002343 -29.814337 2.149634 11.351909 75.633820 0.639392 -7.063708 42.079865 -0.396741 -0.714813 -4.577024 3.310627 4.688697 15.068823 0.496964 -0.010108 19.703087 0.519254 0.138766 
1.222521 21.934614 -5.415733 0.000014 84.995644 0.000013 -8.353531 -10.011360 -0.000918 24.568075 0.000158 -0.452721 27.995153 32.994152 3.001415 -1.450814 -0.212839 30.997189 1.996190 -21.000107 -0.005275 -64.999977 -41.001812 18.998201 -106.003296 -0.000855 16.997761 7.999504 -31.003471 -2.001999 11.996928 22.999266 -0.194377 67.997086 0.000685 -4.001318 4.998345 -0.002972 -5.001835 5.999296 12.196905 -3.002343 -29.814337 2.149634 11.351910 75.633820 0.639391 -7.063708 42.079865 -0.396741 -0.714813 -4.577024 3.310627 4.688697 15.068827 0.496964 -0.010108 19.703087 0.519254 0.138766 
1.222521 21.934614 -5.415733 0.000014 84.995644 0.000013 -8.353531 -10.011361 -0.000918 24.568077 0.000158 -0.452721 27.995155 32.994156 3.001416 -1.450814 -0.212839 30.997189 1.996190 -21.000109 -0.005275 -64.999985 -41.001816 18.998205 -106.003296 -0.000854 16.997761 7.999504 -31.003471 -2.001999 11.996929 22.999268 -0.194377 67.997086 0.000685 -4.001318 4.998346 -0.002972 -5.001836 5.999296 12.196905 -3.002343 -29.814337 2.149634 11.351912 75.633820 0.639391 -7.063708 42.079865 -0.396741 -0.714813 -4.577024 3.310627 4.688697 15.068827 0.496964 -0.010108 19.703087 0.519254 0.138766 
1.222521 21.934614 -5.415733 0.000014 84.995590 0.000013 -8.353531 -10.011360 -0.000918 24.568073 0.000158 -0.452721 27.995153 32.994148 3.001416 -1.450814 -0.212839 30.997189 1.996189 -21.000107 -0.005275 -64.999977 -41.001812 18.998201 -106.003281 -0.000855 16.997759 7.999504 -31.003471 -2.001999 11.996928 22.999266 -0.194377 67.997086 0.000685 -4.001317 4.998345 -0.002972 -5.001835 5.999296 12.196904 -3.002343 -29.814337 2.149634 11.351910 75.633820 0.639391 -7.063708 42.079865 -0.396741 -0.714813 -4.577024 3.310627 4.688697 15.068827 0.496964 -0.010108 19.703085 0.519254 0.138766 
1.222521 21.934614 -5.415733 0.000014 84.995644 0.000013 -8.353532 -10.011361 -0.000918 24.568075 0.000158 -0.452721 27.995155 32.994152 3.001416 -1.450814 -0.212839 30.997189 1.996190 -21.000107 -0.005275 -64.999977 -41.001812 18.998201 -106.003296 -0.000855 16.997761 7.999504 -31.003471 -2.001999 11.996928 22.999266 -0.194377 67.997086 0.000685 -4.001318 4.998345 -0.002972 -5.001835 5.999297 12.196905 -3.002343 -29.814337 2.149634 11.351910 75.633820 0.639391 -7.063708 42.079865 -0.396741 -0.714813 -4.577024 3.310627 4.688697 15.068827 0.496964 -0.010108 19.703089 0.519254 0.138766 
1.222521 21.934614 -5.415733 0.000014 84.995644 0.000013 -8.353531 -10.011360 -0.000918 24.568075 0.000158 -0.452721 27.995155 32.994156 3.001416 -1.450814 -0.212839 30.997189 1.996190 -21.000109 -0.005275 -64.999977 -41.001812 18.998201 -106.003296 -0.000855 16.997761 7.999505 -31.003471 -2.001999 11.996928 22.999268 -0.194377 67.997086 0.000685 -4.001318 4.998346 -0.002972 -5.001836 5.999297 12.196906 -3.002343 -29.814337 2.149634 11.351910 75.633820 0.639391 -7.063709 42.079868 -0.396741 -0.714813 -4.577025 3.310627 4.688698 15.068827 0.496964 -0.010108 19.703087 0.519254 0.138766 
1.222521 21.934614 -5.415733 0.000014 84.995644 0.000013 -8.353531 -10.011360 -0.000918 24.568073 0.000158 -0.452721 27.995153 32.994152 3.001415 -1.450814 -0.212839 30.997189 1.996190 -21.000107 -0.005275 -64.999977 -41.001812 18.998201 -106.003296 -0.000855 16.997761 7.999504 -31.003471 -2.001999 11.996928 22.999266 -0.194377 67.997086 0.000685 -4.001318 4.998345 -0.002972 -5.001835 5.999296 12.196905 -3.002343 -29.814333 2.149634 11.351909 75.633820 0.639391 -7.063708 42.079865 -0.396741 -0.714813 -4.577024 3.310627 4.688697 15.068827 0.496964 -0.010108 19.703087 0.519254 0.138766 
1.222521 21.934614 -5.415733 0.000014 84.995644 0.000013 -8.353531 -10.011360 -0.000918 24.568075 0.000158 -0.452721 27.995153 32.994152 3.001415 -1.450814 -0.212839 30.997189 1.996190 -21.000107 -0.005275 -64.999977 -41.001812 18.998201 -106.003296 -0.000855 16.997761 7.999504 -31.003471 -2.001999 11.996928 22.999268 -0.194377 67.997086 0.000685 -4.001318 4.998346 -0.002972 -5.001836 5.999296 12.196905 -3.002343 -29.814337 2.149634 11.351910 75.633820 0.639391 -7.063708 42.079865 -0.396741 -0.714813 -4.577024 3.310627 4.688697 15.068827 0.496964 -0.010108 19.703087 0.519254 0.138766 
